<svg xmlns="http://www.w3.org/2000/svg" xlink="http://www.w3.org/1999/xlink" width="0" height="0" style="display:none;"><symbol viewBox="0 0 24 24" id="home-4-line"><path fill="none" d="M0 0h24v24H0z"/><path d="M19 21H5a1 1 0 0 1-1-1v-9H1l10.327-9.388a1 1 0 0 1 1.346 0L23 11h-3v9a1 1 0 0 1-1 1zm-6-2h5V9.157l-6-5.454-6 5.454V19h5v-6h2v6z"/></symbol><symbol viewBox="0 0 24 24" id="pages-line"><path fill="none" d="M0 0h24v24H0z"/><path d="M5 8v12h14V8H5zm0-2h14V4H5v2zm15 16H4a1 1 0 0 1-1-1V3a1 1 0 0 1 1-1h16a1 1 0 0 1 1 1v18a1 1 0 0 1-1 1zM7 10h4v4H7v-4zm0 6h10v2H7v-2zm6-5h4v2h-4v-2z"/></symbol><symbol viewBox="0 0 24 24" id="award-line"><path fill="none" d="M0 0h24v24H0z"/><path d="M17 15.245v6.872a.5.5 0 0 1-.757.429L12 20l-4.243 2.546a.5.5 0 0 1-.757-.43v-6.87a8 8 0 1 1 10 0zm-8 1.173v3.05l3-1.8 3 1.8v-3.05A7.978 7.978 0 0 1 12 17a7.978 7.978 0 0 1-3-.582zM12 15a6 6 0 1 0 0-12 6 6 0 0 0 0 12z"/></symbol><symbol viewBox="0 0 24 24" id="links-line"><path fill="none" d="M0 0h24v24H0z"/><path d="M13.06 8.11l1.415 1.415a7 7 0 0 1 0 9.9l-.354.353a7 7 0 0 1-9.9-9.9l1.415 1.415a5 5 0 1 0 7.071 7.071l.354-.354a5 5 0 0 0 0-7.07l-1.415-1.415 1.415-1.414zm6.718 6.011l-1.414-1.414a5 5 0 1 0-7.071-7.071l-.354.354a5 5 0 0 0 0 7.07l1.415 1.415-1.415 1.414-1.414-1.414a7 7 0 0 1 0-9.9l.354-.353a7 7 0 0 1 9.9 9.9z"/></symbol><symbol viewBox="0 0 24 24" id="qq-line"><path fill="none" d="M0 0h24v24H0z"/><path d="M17.535 12.514l-.696-1.796c0-.021.01-.375.01-.558C16.848 7.088 15.446 4 12 4c-3.446 0-4.848 3.088-4.848 6.16 0 .183.009.537.01.558l-.696 1.796c-.19.515-.38 1.05-.517 1.51-.657 2.189-.444 3.095-.282 3.115.348.043 1.354-1.648 1.354-1.648 0 .98.488 2.258 1.542 3.18-.394.127-.878.32-1.188.557-.28.214-.245.431-.194.52.22.385 3.79.245 4.82.125 1.03.12 4.599.26 4.82-.126.05-.088.085-.305-.194-.519-.311-.237-.795-.43-1.19-.556 1.055-.923 1.542-2.202 1.542-3.181 0 0 1.007 1.691 1.355 1.648.162-.02.378-.928-.283-3.116-.14-.463-.325-.994-.516-1.509zm1.021 8.227c-.373.652-.833.892-1.438 1.057-.24.065-.498.108-.794.138-.44.045-.986.065-1.613.064a33.23 33.23 0 0 1-2.71-.116c-.692.065-1.785.114-2.71.116a16.07 16.07 0 0 1-1.614-.064 4.928 4.928 0 0 1-.793-.138c-.605-.164-1.065-.405-1.44-1.059a2.274 2.274 0 0 1-.239-1.652c-.592-.132-1.001-.483-1.279-.911a2.43 2.43 0 0 1-.309-.71 4.028 4.028 0 0 1-.116-1.106c.013-.785.187-1.762.532-2.912.14-.466.327-1.008.568-1.655l.553-1.43a15.496 15.496 0 0 1-.002-.203C5.152 5.605 7.588 2 12 2c4.413 0 6.848 3.605 6.848 8.16l-.001.203.553 1.43.01.026c.225.606.413 1.153.556 1.626.348 1.15.522 2.129.535 2.916.007.407-.03.776-.118 1.108-.066.246-.161.48-.31.708-.276.427-.684.776-1.277.91.13.554.055 1.14-.24 1.654z"/></symbol><symbol viewBox="0 0 24 24" id="netease-cloud-music-line"><path fill="none" d="M0 0h24v24H0z"/><path d="M10.421 11.375c-.294 1.028.012 2.064.784 2.653 1.061.81 2.565.3 2.874-.995.08-.337.103-.722.027-1.056-.23-1.001-.52-1.988-.792-2.996-1.33.154-2.543 1.172-2.893 2.394zm5.548-.287c.273 1.012.285 2.017-.127 3-1.128 2.69-4.721 3.14-6.573.826-1.302-1.627-1.28-3.961.06-5.734.78-1.032 1.804-1.707 3.048-2.054l.379-.104c-.084-.415-.188-.816-.243-1.224-.176-1.317.512-2.503 1.744-3.04 1.226-.535 2.708-.216 3.53.76.406.479.395 1.08-.025 1.464-.412.377-.996.346-1.435-.09-.247-.246-.51-.44-.877-.436-.525.006-.987.418-.945.937.037.468.173.93.3 1.386.022.078.216.135.338.153 1.334.197 2.504.731 3.472 1.676 2.558 2.493 2.861 6.531.672 9.44-1.529 2.032-3.61 3.168-6.127 3.409-4.621.44-8.664-2.53-9.7-7.058C2.515 10.255 4.84 5.831 8.795 4.25c.586-.234 1.143-.031 1.371.498.232.537-.019 1.086-.61 1.35-2.368 1.06-3.817 2.855-4.215 5.424-.533 3.433 1.656 6.776 5 7.72 2.723.77 5.658-.166 7.308-2.33 1.586-2.08 1.4-5.099-.427-6.873a3.979 3.979 0 0 0-1.823-1.013c.198.716.389 1.388.57 2.062z"/></symbol><symbol viewBox="0 0 24 24" id="github-line"><path fill="none" d="M0 0h24v24H0z"/><path d="M5.883 18.653c-.3-.2-.558-.455-.86-.816a50.32 50.32 0 0 1-.466-.579c-.463-.575-.755-.84-1.057-.949a1 1 0 0 1 .676-1.883c.752.27 1.261.735 1.947 1.588-.094-.117.34.427.433.539.19.227.33.365.44.438.204.137.587.196 1.15.14.023-.382.094-.753.202-1.095C5.38 15.31 3.7 13.396 3.7 9.64c0-1.24.37-2.356 1.058-3.292-.218-.894-.185-1.975.302-3.192a1 1 0 0 1 .63-.582c.081-.024.127-.035.208-.047.803-.123 1.937.17 3.415 1.096A11.731 11.731 0 0 1 12 3.315c.912 0 1.818.104 2.684.308 1.477-.933 2.613-1.226 3.422-1.096.085.013.157.03.218.05a1 1 0 0 1 .616.58c.487 1.216.52 2.297.302 3.19.691.936 1.058 2.045 1.058 3.293 0 3.757-1.674 5.665-4.642 6.392.125.415.19.879.19 1.38a300.492 300.492 0 0 1-.012 2.716 1 1 0 0 1-.019 1.958c-1.139.228-1.983-.532-1.983-1.525l.002-.446.005-.705c.005-.708.007-1.338.007-1.998 0-.697-.183-1.152-.425-1.36-.661-.57-.326-1.655.54-1.752 2.967-.333 4.337-1.482 4.337-4.66 0-.955-.312-1.744-.913-2.404a1 1 0 0 1-.19-1.045c.166-.414.237-.957.096-1.614l-.01.003c-.491.139-1.11.44-1.858.949a1 1 0 0 1-.833.135A9.626 9.626 0 0 0 12 5.315c-.89 0-1.772.119-2.592.35a1 1 0 0 1-.83-.134c-.752-.507-1.374-.807-1.868-.947-.144.653-.073 1.194.092 1.607a1 1 0 0 1-.189 1.045C6.016 7.89 5.7 8.694 5.7 9.64c0 3.172 1.371 4.328 4.322 4.66.865.097 1.201 1.177.544 1.748-.192.168-.429.732-.429 1.364v3.15c0 .986-.835 1.725-1.96 1.528a1 1 0 0 1-.04-1.962v-.99c-.91.061-1.662-.088-2.254-.485z"/></symbol><symbol viewBox="0 0 24 24" id="gitlab-line"><path fill="none" d="M0 0h24v24H0z"/><path d="M5.68 7.314l-1.82 5.914L12 19.442l8.14-6.214-1.82-5.914L16.643 11H7.356L5.681 7.314zM15.357 9l2.888-6.354a.4.4 0 0 1 .747.048l3.367 10.945a.5.5 0 0 1-.174.544L12 21.958 1.816 14.183a.5.5 0 0 1-.174-.544L5.009 2.694a.4.4 0 0 1 .747-.048L8.644 9h6.712z"/></symbol><symbol viewBox="0 0 24 24" id="open-arm-line"><path fill="none" d="M0 0h24v24H0z"/><path d="M18 17v5h-2v-5c0-4.451 2.644-8.285 6.447-10.016l.828 1.82A9.002 9.002 0 0 0 18 17zM8 17v5H6v-5A9.002 9.002 0 0 0 .725 8.805l.828-1.821A11.002 11.002 0 0 1 8 17zm4-5a5 5 0 1 1 0-10 5 5 0 0 1 0 10zm0-2a3 3 0 1 0 0-6 3 3 0 0 0 0 6z"/></symbol><symbol viewBox="0 0 24 24" id="search-eye-line"><path fill="none" d="M0 0h24v24H0z"/><path d="M18.031 16.617l4.283 4.282-1.415 1.415-4.282-4.283A8.96 8.96 0 0 1 11 20c-4.968 0-9-4.032-9-9s4.032-9 9-9 9 4.032 9 9a8.96 8.96 0 0 1-1.969 5.617zm-2.006-.742A6.977 6.977 0 0 0 18 11c0-3.868-3.133-7-7-7-3.868 0-7 3.132-7 7 0 3.867 3.132 7 7 7a6.977 6.977 0 0 0 4.875-1.975l.15-.15zm-3.847-8.699a2 2 0 1 0 2.646 2.646 4 4 0 1 1-2.646-2.646z"/></symbol></svg>